<svg width="40" height="40" viewBox="0 0 40 40" fill="none" xmlns="http://www.w3.org/2000/svg">
<path d="M32.0666 9.30006H31.4L25.7666 3.66672C25.3166 3.21672 24.5833 3.21672 24.1166 3.66672C23.6666 4.11672 23.6666 4.85006 24.1166 5.31672L28.1 9.30006H11.9L15.8833 5.31672C16.3333 4.86672 16.3333 4.13339 15.8833 3.66672C15.4333 3.21672 14.7 3.21672 14.2333 3.66672L8.61665 9.30006H7.94998C6.44998 9.30006 3.33331 9.30006 3.33331 13.5667C3.33331 15.1834 3.66665 16.2501 4.36665 16.9501C4.76665 17.3667 5.24998 17.5834 5.76665 17.7001C6.24998 17.8167 6.76665 17.8334 7.26665 17.8334H32.7333C33.25 17.8334 33.7333 17.8001 34.2 17.7001C35.6 17.3667 36.6666 16.3667 36.6666 13.5667C36.6666 9.30006 33.55 9.30006 32.0666 9.30006Z" fill="white"/>
<path d="M31.8167 20H8.18335C7.15002 20 6.36669 20.9167 6.53335 21.9333L7.93335 30.5C8.40002 33.3667 9.65002 36.6667 15.2 36.6667H24.55C30.1667 36.6667 31.1667 33.85 31.7667 30.7L33.45 21.9833C33.65 20.95 32.8667 20 31.8167 20ZM24.8 26.75L19.3834 31.75C19.15 31.9667 18.85 32.0833 18.5334 32.0833C18.2167 32.0833 17.9 31.9667 17.65 31.7167L15.15 29.2167C14.6667 28.7333 14.6667 27.9333 15.15 27.45C15.65 26.9667 16.4334 26.9667 16.9334 27.45L18.5834 29.1L23.1167 24.9167C23.6167 24.45 24.4167 24.4833 24.8834 24.9833C25.35 25.5 25.3167 26.2833 24.8 26.75Z" fill="white"/>
</svg>
